<svg width="208" height="44" viewBox="0 0 208 44" fill="none" xmlns="http://www.w3.org/2000/svg">
<path d="M51.301 36.4645H39.4737C38.9584 36.4645 38.491 36.1612 38.2735 35.6852L32.973 24.1097C32.8339 23.8042 32.8339 23.4522 32.973 23.1489L39.1149 9.74039C39.515 8.86596 40.7368 8.86596 41.1391 9.74039L52.5033 34.5452C52.912 35.4395 52.2728 36.4645 51.3032 36.4645H51.301Z" fill="#C68D00"/>
<path d="M19.3846 7.53331C18.6976 7.53331 18.0736 7.93842 17.7823 8.57155L5.88755 34.5474C5.47881 35.4417 6.12018 36.4667 7.08767 36.4667H11.0229C11.9773 36.4667 12.8513 35.9155 13.2731 35.0433L15.8321 29.7702C16.3799 28.5039 17.7214 27.5033 18.9041 27.5077C20.1325 27.5122 20.7217 28.5991 20.2195 29.9362C20.1738 30.058 20.1195 30.1753 20.0608 30.2904H20.0629L18.0258 34.9437C17.7127 35.6587 18.228 36.4667 18.9976 36.4667H23.9634C24.4786 36.4667 24.9482 36.1612 25.1656 35.6852L37.4061 8.84383C37.6561 8.30368 38.0366 7.85651 38.4996 7.53331H19.3846Z" fill="#F9CA35"/>
<path d="M18.1997 29.033C17.7366 29.0286 17.2148 29.4514 17.0344 29.9738C16.8539 30.4963 17.0822 30.9235 17.5453 30.928C18.0084 30.9324 18.5302 30.5096 18.7106 29.9871C18.8911 29.4647 18.6628 29.0374 18.1997 29.033Z" fill="#C68D00"/>
<path d="M37.4039 8.84383C37.6539 8.30368 38.0344 7.85651 38.4975 7.5333H25.5287L31.7859 21.1632L37.4039 8.84383Z" fill="#E5A900"/>
<path d="M69.6138 13.3266H72.9989V29.8963H69.5986L69.4681 27.4945C68.9898 28.3445 68.3441 29.0308 67.531 29.5488C66.7178 30.0668 65.7569 30.328 64.6502 30.328C63.4566 30.328 62.3348 30.0978 61.2825 29.6396C60.2302 29.1813 59.3062 28.5438 58.5083 27.7269C57.7104 26.91 57.0908 25.967 56.6451 24.9022C56.1994 23.8352 55.9776 22.6907 55.9776 21.4643C55.9776 20.2379 56.195 19.1686 56.6277 18.126C57.0625 17.0811 57.6647 16.169 58.4344 15.3832C59.204 14.5995 60.0976 13.9841 61.1107 13.5347C62.1239 13.0875 63.2131 12.8639 64.3741 12.8639C65.5351 12.8639 66.6004 13.1384 67.5071 13.6852C68.4137 14.232 69.1638 14.9316 69.7616 15.7816L69.616 13.3288L69.6138 13.3266ZM64.5698 26.9964C65.5242 26.9964 66.3591 26.7551 67.0766 26.2747C67.7919 25.7943 68.3485 25.1457 68.7442 24.3288C69.1398 23.512 69.3377 22.6065 69.3377 21.6126C69.3377 20.6186 69.1377 19.6955 68.7355 18.8786C68.3332 18.0618 67.7788 17.4131 67.0679 16.9328C66.3569 16.4524 65.5242 16.2111 64.5698 16.2111C63.6154 16.2111 62.7631 16.4546 61.9826 16.9394C61.2021 17.4264 60.5824 18.0773 60.128 18.8941C59.6715 19.711 59.4454 20.6164 59.4454 21.6126C59.4454 22.6088 59.6823 23.5275 60.1541 24.3377C60.6259 25.1501 61.2499 25.7965 62.0261 26.2769C62.8022 26.7573 63.6501 26.9986 64.572 26.9986L64.5698 26.9964Z" fill="black"/>
<path d="M83.0891 30.328C81.5911 30.328 80.228 29.9362 78.9974 29.1525C77.7668 28.3689 76.7841 27.3151 76.0514 25.9958C75.3187 24.6764 74.9535 23.2153 74.9535 21.6126C74.9535 20.3972 75.1644 19.2616 75.5883 18.2079C76.0123 17.1541 76.595 16.2244 77.3385 15.4252C78.0821 14.6239 78.9474 13.9974 79.9344 13.5436C80.9215 13.0897 81.9738 12.8639 83.0913 12.8639C84.3393 12.8639 85.4829 13.1274 86.5243 13.652C87.5657 14.1767 88.4549 14.9006 89.1919 15.8215C89.929 16.7446 90.4725 17.805 90.8204 19.0026C91.1682 20.2024 91.2704 21.4753 91.1291 22.8213H78.5821C78.7235 23.5828 78.9974 24.2713 79.404 24.8845C79.8105 25.4977 80.3323 25.9803 80.965 26.3345C81.5998 26.6887 82.3086 26.8702 83.0891 26.8813C83.9131 26.8813 84.6654 26.6709 85.3437 26.2526C86.022 25.8319 86.5786 25.2519 87.0113 24.5126L90.4442 25.325C89.7942 26.7949 88.8115 27.9948 87.4983 28.9289C86.1851 29.8631 84.7154 30.328 83.0891 30.328ZM78.4669 20.1869H87.7092C87.6005 19.3922 87.3265 18.6705 86.8874 18.0241C86.4482 17.3777 85.9003 16.8641 85.2437 16.4834C84.5871 16.1026 83.8696 15.9122 83.087 15.9122C82.3043 15.9122 81.6042 16.1004 80.9476 16.4745C80.291 16.8509 79.7496 17.36 79.3192 18.0064C78.8909 18.6528 78.606 19.3789 78.4647 20.1847L78.4669 20.1869Z" fill="black"/>
<path d="M101.639 16.7734H98.2212L98.2059 29.8964H94.8208L94.836 16.7734H92.2488V13.3266H94.836L94.8208 8.12437H98.2059L98.2212 13.3266H101.639V16.7734Z" fill="black"/>
<path d="M118.547 19.5073V29.8964H115.162V20.353C115.162 19.6136 114.986 18.9384 114.634 18.3319C114.282 17.7253 113.81 17.2405 113.218 16.8819C112.627 16.5232 111.962 16.3439 111.225 16.3439C110.488 16.3439 109.853 16.5232 109.255 16.8819C108.657 17.2405 108.181 17.7253 107.822 18.3319C107.463 18.9384 107.285 19.6136 107.285 20.353V29.8964H103.9V8.12437H107.285V15.0843C107.848 14.4003 108.544 13.8579 109.368 13.4594C110.192 13.061 111.081 12.864 112.036 12.864C113.24 12.864 114.336 13.1628 115.323 13.7583C116.31 14.3538 117.095 15.1552 117.675 16.1602C118.256 17.1652 118.545 18.2809 118.545 19.5073H118.547Z" fill="black"/>
<path d="M128.635 30.328C127.137 30.328 125.774 29.9362 124.543 29.1525C123.311 28.3689 122.33 27.3151 121.598 25.9958C120.865 24.6764 120.5 23.2153 120.5 21.6126C120.5 20.3972 120.71 19.2616 121.134 18.2079C121.558 17.1541 122.141 16.2244 122.885 15.4252C123.628 14.6239 124.493 13.9974 125.481 13.5436C126.468 13.0897 127.52 12.8639 128.637 12.8639C129.885 12.8639 131.029 13.1274 132.07 13.652C133.112 14.1767 134.001 14.9006 134.74 15.8215C135.477 16.7446 136.019 17.805 136.366 19.0026C136.714 20.2024 136.816 21.4753 136.675 22.8213H124.128C124.27 23.5828 124.543 24.2713 124.95 24.8845C125.357 25.4977 125.878 25.9803 126.511 26.3345C127.146 26.6887 127.855 26.8702 128.635 26.8813C129.459 26.8813 130.211 26.6709 130.89 26.2526C131.568 25.8319 132.125 25.2519 132.557 24.5126L135.99 25.325C135.34 26.7949 134.358 27.9948 133.044 28.9289C131.731 29.8631 130.261 30.328 128.635 30.328ZM124.013 20.1869H133.255C133.147 19.3922 132.873 18.6705 132.433 18.0241C131.994 17.3777 131.446 16.8641 130.79 16.4834C130.133 16.1026 129.416 15.9122 128.633 15.9122C127.85 15.9122 127.15 16.1004 126.494 16.4745C125.837 16.8509 125.296 17.36 124.867 18.0064C124.439 18.6528 124.154 19.3789 124.013 20.1847V20.1869Z" fill="black"/>
<path d="M138.823 29.8964V13.3266H142.208V15.0821C142.771 14.3981 143.467 13.8557 144.291 13.4572C145.115 13.0588 146.004 12.8617 146.961 12.8617C147.568 12.8617 148.17 12.9436 148.768 13.1097L147.418 16.5896C146.994 16.4236 146.572 16.3417 146.148 16.3417C145.433 16.3417 144.776 16.521 144.178 16.8796C143.58 17.2383 143.104 17.7231 142.745 18.3296C142.387 18.9362 142.208 19.6114 142.208 20.3508V29.8941H138.823V29.8964Z" fill="black"/>
<path d="M153.451 35.8756V26.516C154.025 27.6649 154.831 28.5925 155.868 29.3009C156.906 30.007 158.145 30.3612 159.586 30.3612C160.769 30.3612 161.876 30.1354 162.906 29.6816C163.937 29.2278 164.846 28.6013 165.633 27.8C166.42 26.9986 167.035 26.0688 167.478 25.0084C167.924 23.9481 168.146 22.8169 168.146 21.6126C168.146 20.4083 167.924 19.2815 167.478 18.2322C167.033 17.1829 166.417 16.2576 165.633 15.4562C164.846 14.6549 163.937 14.0284 162.906 13.5746C161.876 13.1207 160.769 12.8949 159.586 12.8949C158.143 12.8949 156.903 13.2491 155.868 13.9553C154.831 14.6615 154.027 15.589 153.451 16.738V13.3244H151.694V35.8734H153.451V35.8756ZM154.305 18.0994C154.788 17.0501 155.477 16.2133 156.373 15.589C157.269 14.9648 158.334 14.6526 159.571 14.6526C160.808 14.6526 161.971 14.967 162.997 15.5979C164.024 16.2266 164.841 17.07 165.454 18.1238C166.067 19.1797 166.374 20.3419 166.374 21.6126C166.374 22.8833 166.059 24.1119 165.43 25.1678C164.8 26.2238 163.974 27.0606 162.95 27.6782C161.923 28.298 160.799 28.6057 159.573 28.6057C158.347 28.6057 157.256 28.2892 156.36 27.6538C155.464 27.0185 154.779 26.1706 154.301 25.1103C153.823 24.0499 153.586 22.8855 153.586 21.6148C153.586 20.3441 153.827 19.1509 154.31 18.1016L154.305 18.0994Z" fill="black"/>
<path d="M184.467 13.3266H186.224V29.8963H184.467L184.419 26.5005C183.865 27.6494 183.076 28.5747 182.052 29.2765C181.028 29.9783 179.797 30.328 178.366 30.328C177.184 30.328 176.075 30.0978 175.038 29.6396C174.001 29.1813 173.088 28.5526 172.296 27.7512C171.505 26.9499 170.885 26.0223 170.442 24.9686C169.998 23.9149 169.774 22.7792 169.774 21.5639C169.774 20.3485 169.994 19.2328 170.433 18.1835C170.872 17.1342 171.483 16.2089 172.264 15.4075C173.044 14.6061 173.951 13.9819 174.981 13.5347C176.012 13.0875 177.114 12.8639 178.284 12.8639C179.728 12.8639 180.978 13.2204 182.034 13.9332C183.093 14.646 183.919 15.5758 184.515 16.7247L184.465 13.3288L184.467 13.3266ZM178.349 28.5703C179.597 28.5703 180.669 28.2582 181.562 27.6339C182.458 27.0096 183.143 26.1684 183.621 25.1081C184.098 24.0477 184.337 22.8833 184.337 21.6126C184.337 20.3419 184.095 19.131 183.613 18.0751C183.13 17.0213 182.441 16.1801 181.545 15.5558C180.649 14.9316 179.584 14.6194 178.347 14.6194C177.11 14.6194 175.947 14.9338 174.92 15.5647C173.896 16.1934 173.079 17.039 172.472 18.0994C171.864 19.1598 171.561 20.3308 171.561 21.6126C171.561 22.8943 171.872 24.092 172.496 25.1413C173.12 26.1906 173.946 27.0251 174.977 27.6428C176.008 28.2626 177.129 28.5703 178.345 28.5703H178.349Z" fill="black"/>
<path d="M192.305 35.8756H194.177L202.239 13.3266H200.399L195.323 27.428L190.522 13.3266H188.6L194.444 29.8964L192.305 35.8756Z" fill="black"/>
</svg>
